<svg xmlns="http://www.w3.org/2000/svg" width="48" height="48" viewBox="0 0 48 48"><g transform="translate(0 -1004.362)"><circle cx="24" cy="1028.362" r="24" fill="#239fdb" fill-rule="evenodd"/><path fill="#0b5ecd" fill-rule="evenodd" style="line-height:normal;text-indent:0;text-align:start;text-decoration-line:none;text-decoration-style:solid;text-decoration-color:#000;text-transform:none;block-progression:tb;isolation:auto;mix-blend-mode:normal" d="M 27 11 L 27 19.955078 L 23 15.955078 L 22 15.955078 L 21 14.955078 L 17 14.955078 L 17 15.955078 L 15.099609 15.955078 L 12.099609 12.955078 L 8 12.955078 L 8 37 L 18.277344 47.277344 A 23.999998 23.999998 0 0 0 24 48 A 23.999998 23.999998 0 0 0 48 24 A 23.999998 23.999998 0 0 0 47.882812 21.837891 L 40 13.955078 L 35.955078 13.955078 L 33 11 L 27 11 z " color="#000" font-family="sans-serif" font-weight="400" transform="translate(0 1004.362)"/><path fill="#fff" fill-rule="evenodd" d="m 27,1015.3622 0,8.9551 -4,0 0,-4 -2,0 0,-1 -4,0 0,1 -2,0 0,3 -2.900391,0 0,-6 -4.099609,0 0,24.0449 1,0 0,-9.5449 0.9492188,0 0,2 3.0507812,0 0,7.5449 1,0 0,-12.0449 2.412109,0 0,-2 2.275391,0 0,2 2.3125,0 0,-1 -1.3125,0 0,-2 -4.275391,0 0,2 -2.412109,0 0,4.5 -2.050781,0 0,-2 -1.949219,0 0,-12.5 2.099609,0 0,6 4.900391,0 0,-3 2,0 0,-1 2,0 0,1 2,0 0,4 6,0 0,-8.9551 4,0 0,9.9551 4,0 0,-7 3,0 0,11 -2.5,0 0,-2 -4.5,0 0,1 3.5,0 0,2 3.5,0 0,10.0449 1,0 0,-10.0449 0,-1 0,-12 -5,0 0,7 -2,0 0,-9.9551 z m -1.976562,10.9531 c -0.01692,-9e-4 -0.03386,-9e-4 -0.05078,0 -0.116225,0.01 -0.226739,0.052 -0.3125,0.1309 l -6.498047,6 c -0.340703,0.3078 -0.121248,0.8736 0.337889,0.8711 l 0.5,0 0,7.498 c 2.8e-5,0.2761 0.223869,0.5 0.5,0.5 l 11,0 c 0.276131,0 0.499972,-0.2239 0.5,-0.5 l 0,-7.498 0.5,0 c 0.457682,0 0.677728,-0.5605 0.339844,-0.8692 L 31,1031.6727 l 0,-2.8496 c 0.0033,-0.2815 -0.226347,-0.5102 -0.507812,-0.5058 -0.275349,0 -0.495388,0.2304 -0.492188,0.5058 l 0,1.9258 -4.660156,-4.3008 c -0.0865,-0.08 -0.198575,-0.1272 -0.316406,-0.1328 z M 25,1027.4989 l 5.220703,4.8184 -10.441406,0 z m -5,6.0332 10,0 0,6.7832 -3,0 0,-3.5 c -2.8e-5,-0.2761 -0.223869,-0.5 -0.5,-0.5 l -3,0 c -0.276131,0 -0.499972,0.2239 -0.5,0.5 l 0,3.5 -3,0 z m 4,3.7832 2,0 0,3 -2,0 z" color="#000" font-family="sans-serif" font-weight="400" overflow="visible" style="line-height:normal;text-indent:0;text-align:start;text-decoration-line:none;text-decoration-style:solid;text-decoration-color:#000;text-transform:none;block-progression:tb;isolation:auto;mix-blend-mode:normal"/></g></svg>