<svg xmlns="http://www.w3.org/2000/svg" data-name="Layer 1" viewBox="0 0 64 64"><path fill="gray" d="M3,43H61a0,0,0,0,1,0,0v4a2,2,0,0,1-2,2H5a2,2,0,0,1-2-2V43A0,0,0,0,1,3,43Z"/><rect width="58" height="3" x="3" y="43" fill="#6b6b6b"/><rect width="52" height="32" x="5.83" y="11" fill="#94e6ff"/><rect width="52" height="3" x="5.83" y="11" fill="#5cb7e6"/><rect width="14" height="3" x="25.42" y="43" fill="#ffcc40"/><rect width="18" height="32" x="43" y="21" fill="#fc7a71" rx="2" ry="2"/><path fill="#db584f" d="M45,21H59a2,2,0,0,1,2,2v1a0,0,0,0,1,0,0H43a0,0,0,0,1,0,0V23A2,2,0,0,1,45,21Z"/><path fill="#ebe3d8" d="M43,49H61a0,0,0,0,1,0,0v2a2,2,0,0,1-2,2H45a2,2,0,0,1-2-2V49A0,0,0,0,1,43,49Z"/><path fill="#0a1827" d="M30,16h4a1,1,0,0,0,0-2H30a1,1,0,0,0,0,2Z"/><path fill="#0a1827" d="M59,20h-.17V11a1,1,0,0,0-1-1h-52a1,1,0,0,0-1,1V42H3a1,1,0,0,0-1,1v4a3,3,0,0,0,3,3H42v1a3,3,0,0,0,3,3H59a3,3,0,0,0,3-3V23A3,3,0,0,0,59,20ZM6.83,12h50v8H45a3,3,0,0,0-3,3V42H6.83ZM26.42,44h12v1h-12ZM5,48a1,1,0,0,1-1-1V44H24.42v2a1,1,0,0,0,1,1h14a1,1,0,0,0,1-1V44H42v4Zm55,3a1,1,0,0,1-1,1H45a1,1,0,0,1-1-1V23a1,1,0,0,1,1-1H59a1,1,0,0,1,1,1Z"/><path fill="#0a1827" d="M53,23H51a1,1,0,0,0,0,2h2a1,1,0,0,0,0-2Z"/></svg>