<svg xmlns="http://www.w3.org/2000/svg" viewBox="0 0 965.355 1010"><path fill="#EFEFF0" d="M13.29 13.29h938.776v983.42H13.29z"/><path fill="#4D4D4D" d="M952.066 1010H13.29C5.944 1010 0 1004.057 0 996.71V13.29C0 5.944 5.944 0 13.29 0h938.776c7.346 0 13.29 5.944 13.29 13.29v983.42c0 7.347-5.944 13.29-13.29 13.29zM26.58 983.42h912.197V26.58H26.58v956.84z"/><g fill="#4D4D4D"><path d="M142.16 301.09h-37.713V108.6h42.282l77.115 135.127V108.6H261.584v192.49h-40.179L142.16 162.38v138.71zM300.233 301.09V108.6h141.745v34.262H340.387v40.907h94.272v33.146h-94.272v49.939h106.186V301.09h-146.34zM516.238 301.09l-53.52-192.49h41.84l32.133 140.837h-.077L564.231 108.6h42.775l27.851 139.669h.053l31.9-139.669H707.457l-53.521 192.49H615.65l-30.914-151.427-30.213 151.427h-38.285zM836.38 166.274c-.727-9.162-4.75-16.352-12.044-21.673-7.345-5.373-16.897-8.02-28.732-8.02-10.253 0-18.196 2.258-23.984 6.722-5.763 4.49-8.669 10.772-8.669 18.766 0 5.763 3.063 10.201 9.059 13.316 5.995 3.192 18.558 6.852 37.894 11.135 28.059 6.281 46.8 13.497 56.3 21.7 9.421 8.097 14.146 21.205 14.146 39.115 0 18.091-7.112 32.47-21.362 43.035-14.198 10.642-33.535 15.937-57.83 15.937-24.321 0-43.347-5.607-57.103-16.897-13.653-11.291-20.973-27.28-21.96-48.071h38.727c.415 10.175 4.152 18.065 11.161 23.49 6.93 5.529 16.716 8.332 29.149 8.332 12.848 0 22.815-2.077 30.005-6.23 7.189-4.152 10.824-9.914 10.824-17.234 0-7.19-2.596-12.511-7.787-15.937-5.088-3.374-15.885-6.956-32.42-10.616-30.498-6.723-50.899-14.146-61.178-22.089-10.174-7.865-15.313-20.09-15.313-36.806 0-18.662 6.774-33.43 20.298-44.436 13.548-10.954 31.822-16.378 54.793-16.378 21.569 0 39.115 5.606 52.612 16.949 13.55 11.343 21.077 26.63 22.53 45.89h-39.115z"/></g><path fill="#FFF" d="M102.656 432.765h413.531"/><path fill="#4D4D4D" d="M516.188 446.054H102.656c-7.346 0-13.29-5.944-13.29-13.29 0-7.345 5.944-13.289 13.29-13.289h413.531c7.345 0 13.29 5.944 13.29 13.29 0 7.345-5.945 13.29-13.29 13.29z"/><path fill="#5FD4AF" d="M654.377 432.765H866.67v245.854H654.377z"/><path fill="#4D4D4D" d="M866.67 691.91H654.378c-7.346 0-13.29-5.945-13.29-13.29V432.764c0-7.346 5.944-13.29 13.29-13.29H866.67c7.345 0 13.29 5.944 13.29 13.29v245.854c0 7.346-5.945 13.29-13.29 13.29zm-199.004-26.58h185.715V446.054H667.666V665.33z"/><path fill="#FFF" d="M102.656 483.041h413.531"/><path fill="#4D4D4D" d="M516.188 496.33H102.656c-7.346 0-13.29-5.943-13.29-13.288 0-7.346 5.944-13.29 13.29-13.29h413.531c7.345 0 13.29 5.944 13.29 13.29 0 7.345-5.945 13.289-13.29 13.289z"/><path fill="#FFF" d="M102.656 531.501h413.531"/><path fill="#4D4D4D" d="M516.188 544.79H102.656c-7.346 0-13.29-5.943-13.29-13.29 0-7.344 5.944-13.289 13.29-13.289h413.531c7.345 0 13.29 5.945 13.29 13.29 0 7.346-5.945 13.29-13.29 13.29z"/><path fill="#FFF" d="M102.656 581.777h413.531"/><path fill="#4D4D4D" d="M516.188 595.067H102.656c-7.346 0-13.29-5.944-13.29-13.29s5.944-13.289 13.29-13.289h413.531c7.345 0 13.29 5.944 13.29 13.29s-5.945 13.29-13.29 13.29z"/><path fill="#FFF" d="M102.656 632.08h413.531"/><path fill="#4D4D4D" d="M516.188 645.37H102.656c-7.346 0-13.29-5.944-13.29-13.29s5.944-13.289 13.29-13.289h413.531c7.345 0 13.29 5.943 13.29 13.29s-5.945 13.29-13.29 13.29z"/><path fill="#FFF" d="M102.656 682.332h413.531"/><path fill="#4D4D4D" d="M516.188 695.621H102.656c-7.346 0-13.29-5.943-13.29-13.289s5.944-13.29 13.29-13.29h413.531c7.345 0 13.29 5.944 13.29 13.29 0 7.346-5.945 13.29-13.29 13.29z"/><path fill="#FFF" d="M102.656 730.791h413.531"/><path fill="#4D4D4D" d="M516.188 744.08H102.656c-7.346 0-13.29-5.943-13.29-13.289s5.944-13.289 13.29-13.289h413.531c7.345 0 13.29 5.943 13.29 13.289s-5.945 13.29-13.29 13.29z"/><path fill="#FFF" d="M102.656 781.068h413.531"/><path fill="#4D4D4D" d="M516.188 794.357H102.656c-7.346 0-13.29-5.943-13.29-13.289s5.944-13.289 13.29-13.289h413.531c7.345 0 13.29 5.944 13.29 13.29s-5.945 13.288-13.29 13.288z"/><path fill="#FFF" d="M102.656 883.854h413.531"/><path fill="#4D4D4D" d="M516.188 897.144H102.656c-7.346 0-13.29-5.945-13.29-13.29s5.944-13.29 13.29-13.29h413.531c7.345 0 13.29 5.944 13.29 13.29s-5.945 13.29-13.29 13.29z"/><path fill="#FFF" d="M102.656 833.188h413.531"/><path fill="#4D4D4D" d="M516.188 846.477H102.656c-7.346 0-13.29-5.944-13.29-13.29s5.944-13.289 13.29-13.289h413.531c7.345 0 13.29 5.944 13.29 13.29s-5.945 13.289-13.29 13.289zM868.747 796.278H647.473c-7.346 0-13.29-5.944-13.29-13.29s5.944-13.289 13.29-13.289h221.274c7.346 0 13.29 5.944 13.29 13.29s-5.944 13.29-13.29 13.29z"/><g><path fill="#4D4D4D" d="M868.747 846.736H647.473c-7.346 0-13.29-5.943-13.29-13.289s5.944-13.289 13.29-13.289h221.274c7.346 0 13.29 5.944 13.29 13.29s-5.944 13.288-13.29 13.288z"/></g><g><path fill="#4D4D4D" d="M868.747 897.144H647.473c-7.346 0-13.29-5.945-13.29-13.29s5.944-13.29 13.29-13.29h221.274c7.346 0 13.29 5.944 13.29 13.29s-5.944 13.29-13.29 13.29z"/></g><g><path fill="#4D4D4D" d="M870.512 745.871H649.264c-7.346 0-13.29-5.943-13.29-13.289s5.944-13.289 13.29-13.289h221.248c7.345 0 13.29 5.943 13.29 13.289s-5.945 13.29-13.29 13.29z"/></g></svg>