<svg xmlns="http://www.w3.org/2000/svg" width="32" height="32" viewBox="0 0 32 32"><g transform="translate(542.988 -1362.339)"><path fill="#f05542" d="m -534.98753,1378.3386 c 0.554,0 1.081,0.1115 1.55987,0.3134 0.47888,0.2019 0.90963,0.4941 1.27113,0.8556 0.723,0.723 1.169,1.723 1.169,2.831 l 0,8 c 0,2.216 -1.784,4 -4,4 l 15,0 c -2.216,0 -4,-1.784 -4,-4 l 0,-8 c 0,-0.554 0.1115,-1.081 0.31338,-1.5599 0.20187,-0.4788 0.49412,-0.9096 0.85562,-1.2711 0.3615,-0.3615 0.79225,-0.6537 1.27113,-0.8556 0.47887,-0.2019 1.00587,-0.3134 1.55987,-0.3134"/><path fill="#25b39e" d="m -520.98754,1376.5564 a 6.5000086,6.5000086 0 0 1 -6.50001,6.5 6.5000086,6.5000086 0 0 1 -6.50001,-6.5 6.5000086,6.5000086 0 0 1 6.50001,-6.5 6.5000086,6.5000086 0 0 1 6.50001,6.5 z"/><path fill="#25b39e" d="m -520.98754,1369.8386 a 6.5000086,6.5000086 0 0 1 -6.50001,6.5 6.5000086,6.5000086 0 0 1 -6.50001,-6.5 6.5000086,6.5000086 0 0 1 6.50001,-6.5 6.5000086,6.5000086 0 0 1 6.50001,6.5 z"/><path fill="#25b39e" d="M-527.98755 1376.3386a6 6 0 0 1-6 6 6 6 0 0 1-6-6 6 6 0 0 1 6-6 6 6 0 0 1 6 6zM-514.98755 1376.3386a6 6 0 0 1-6 6 6 6 0 0 1-6-6 6 6 0 0 1 6-6 6 6 0 0 1 6 6z"/><path fill="#60c5b8" style="line-height:normal;text-indent:0;text-align:start;text-decoration-line:none;text-decoration-style:solid;text-decoration-color:#000;text-transform:none;block-progression:tb;isolation:auto;mix-blend-mode:normal" d="M-527.83984 1364.8516a.50005.50005 0 0 0-.0332 0c-2.24832.1743-4.10713 1.8372-4.52734 4.0527a.5000857.5000857 0 1 0 .98242.1876c.33697-1.7767 1.81815-3.1025 3.62109-3.2422a.50046118.50046118 0 1 0-.043-1zM-536.02734 1372.377a.50004997.50004997 0 0 0-.22071.07c-1.04453.607-1.80135 1.6105-2.09961 2.7812-.29825 1.1707-.11307 2.4125.51368 3.4453a.50004997.50004997 0 1 0 .85351-.5195c-.48766-.8036-.6305-1.7688-.39844-2.6797.23207-.9109.82009-1.6898 1.63282-2.1621a.50004997.50004997 0 0 0-.28125-.9355z" color="#000" font-family="sans-serif" font-weight="400" overflow="visible"/></g></svg>